<svg width="48" height="48" viewBox="0 0 48 48" fill="none" xmlns="http://www.w3.org/2000/svg">
<rect x="0.5" y="0.5" width="47" height="47" rx="23.5" stroke="#94C8F3"/>
<path d="M34.2206 18.847C33.9752 17.9232 33.2523 17.1956 32.3345 16.9487C30.6708 16.5 23.9997 16.5 23.9997 16.5C23.9997 16.5 17.3286 16.5 15.6649 16.9487C14.747 17.1956 14.0241 17.9232 13.7788 18.847C13.333 20.5215 13.333 24.0152 13.333 24.0152C13.333 24.0152 13.333 27.5088 13.7788 29.1833C14.0241 30.1071 14.747 30.8044 15.6649 31.0513C17.3286 31.5 23.9997 31.5 23.9997 31.5C23.9997 31.5 30.6708 31.5 32.3345 31.0513C33.2523 30.8044 33.9752 30.1071 34.2206 29.1833C34.6664 27.5088 34.6664 24.0152 34.6664 24.0152C34.6664 24.0152 34.6664 20.5215 34.2206 18.847ZM21.8179 27.1871V20.8432L27.3936 24.0152L21.8179 27.1871Z" fill="#94C8F3"/>
</svg>
