<svg width="81" height="115" viewBox="0 0 81 115" fill="none" xmlns="http://www.w3.org/2000/svg">
<g clip-path="url(#clip0_328_1808)">
<path d="M9 20C4.03594 20 0 24.0359 0 29V69.5C0 74.4641 4.03594 78.5 9 78.5H33.75L32.2453 83H22.5C20.0109 83 18 85.0109 18 87.5C18 89.9891 20.0109 92 22.5 92H58.5C60.9891 92 63 89.9891 63 87.5C63 85.0109 60.9891 83 58.5 83H48.7547L47.25 78.5H72C76.9641 78.5 81 74.4641 81 69.5V29C81 24.0359 76.9641 20 72 20H9ZM72 29V60.5H9V29H72Z" fill="#0B283B"/>
</g>
<defs>
<clipPath id="clip0_328_1808">
<path d="M0 20H81V92H0V20Z" fill="white"/>
</clipPath>
</defs>
</svg>
